# xmcd CD Database Entry
#
# Track frame offsets:
# 150
# 13455
# 27578
# 40397
# 55972
# 68854
# 84445
# 97472
# 115424
# 126994
# 143201
# 154446
# 167716
# 177857
# 193007
# 205637
# 222118
# 239012
# 254295
# 273585
# 286811
# 298576
# 317369
#
# Disc length: 4429 seconds
#
# Revision: 3
# Processed by: cddbd v1.4PL0 Copyright (c) Steve Scherf et al.
# Submitted via: tcd 2.0b
#
DISCID=6c114b17
DTITLE=Mireille Mathieu
DYEAR=1900
DGENRE=
TTITLE0=Трек 1
TTITLE1=Трек 2
TTITLE2=Трек 3
TTITLE3=Трек 4
TTITLE4=Трек 5
TTITLE5=Трек 6
TTITLE6=Трек 7
TTITLE7=Трек 8
TTITLE8=Трек 9
TTITLE9=Трек 10
TTITLE10=Трек 11
TTITLE11=Трек 12
TTITLE12=Трек 13
TTITLE13=Трек 14
TTITLE14=Трек 15
TTITLE15=Трек 16
TTITLE16=Трек 17
TTITLE17=Pardonne-moi ce caprice D'Enfant
TTITLE18=Трек 19
TTITLE19=Трек 20
TTITLE20=Трек 21
TTITLE21=Трек 22
TTITLE22=Трек 23
EXTD=The Best of Mireille Mathieu
EXTT0=
EXTT1=
EXTT2=
EXTT3=
EXTT4=
EXTT5=
EXTT6=
EXTT7=
EXTT8=
EXTT9=
EXTT10=
EXTT11=
EXTT12=
EXTT13=
EXTT14=
EXTT15=
EXTT16=
EXTT17=
EXTT18=
EXTT19=
EXTT20=
EXTT21=
EXTT22=
PLAYORDER=
